# xmcd
#
# Track frame offsets: 
#        150
#        21827
#        42090
#        56110
#        73417
#        88395
#        102262
#        119865
#        131702
#        151342
#        173345
#
# Disc length: 2441 seconds
#
# Revision: 2
# Processed by: cddbd v1.5.2PL0 Copyright (c) Steve Scherf et al.
# Submitted via: ExactAudioCopy v0.99pb5
#
DISCID=9e09870b
DTITLE=Steve Wariner - The Hits Collection
DYEAR=2003
DGENRE=Country
TTITLE0=Holes In The Floor Of Heaven
TTITLE1=Two Teardrops
TTITLE2=Katie Wants A Fast One
TTITLE3=Been There (With Clint Black)
TTITLE4=I'm Already Taken
TTITLE5=Every Little Whisper
TTITLE6=Faith In You
TTITLE7=Hands Of Time
TTITLE8=Turn In The Road
TTITLE9=What If I Said (With Anita Cochran)
TTITLE10=Burnin' The Roadhouse Down (With Garth Brooks)
EXTD=
EXTT0=
EXTT1=
EXTT2=
EXTT3=
EXTT4=
EXTT5=
EXTT6=
EXTT7=
EXTT8=
EXTT9=
EXTT10=
PLAYORDER=
